<?xml version="1.0" standalone="no"?>
<!DOCTYPE svg PUBLIC "-//W3C//DTD SVG 20010904//EN"
 "http://www.w3.org/TR/2001/REC-SVG-20010904/DTD/svg10.dtd">
<svg version="1.0" xmlns="http://www.w3.org/2000/svg"
 width="128.000000pt" height="128.000000pt" viewBox="0 0 128.000000 128.000000"
 preserveAspectRatio="xMidYMid meet">

<g transform="translate(0.000000,128.000000) scale(0.100000,-0.100000)"
fill="#221c44" stroke="none">
<path d="M501 1265 c-178 -39 -348 -172 -429 -336 -127 -256 -81 -540 118
-739 251 -252 649 -252 900 0 252 251 252 649 0 900 -155 156 -375 221 -589
175z m264 -100 c241 -61 415 -282 415 -525 0 -292 -248 -540 -540 -540 -292 0
-540 248 -540 540 0 241 173 462 410 524 73 19 182 20 255 1z"/>
<path d="M606 924 c-13 -12 -16 -39 -16 -125 l0 -109 -109 0 c-86 0 -113 -3
-125 -16 -20 -19 -20 -35 -2 -59 12 -17 30 -20 125 -23 l111 -4 0 -100 c0
-115 8 -138 50 -138 42 0 50 23 50 138 l0 100 111 4 c95 3 113 6 125 23 18 24
18 40 -2 59 -12 13 -39 16 -125 16 l-109 0 0 109 c0 116 -9 141 -50 141 -10 0
-26 -7 -34 -16z"/>
</g>
</svg>
