<?xml version="1.0" standalone="no"?>
<!DOCTYPE svg PUBLIC "-//W3C//DTD SVG 20010904//EN"
 "http://www.w3.org/TR/2001/REC-SVG-20010904/DTD/svg10.dtd">
<svg version="1.0" xmlns="http://www.w3.org/2000/svg"
 width="512.000000pt" height="512.000000pt" viewBox="0 0 512.000000 512.000000"
 preserveAspectRatio="xMidYMid meet">

<g transform="translate(0.000000,512.000000) scale(0.100000,-0.100000)"
fill="#221c44" stroke="none">
<path d="M1185 4451 c-17 -7 -1079 -1378 -1160 -1496 -32 -48 -32 -68 2 -104
54 -58 2603 -1683 2843 -1813 377 -204 875 -338 1371 -368 236 -14 558 9 603
43 8 7 71 95 140 195 139 204 148 227 128 340 -17 104 -62 186 -150 271 -66
65 -101 89 -236 161 -268 143 -435 271 -691 527 -192 193 -186 184 -141 226
44 42 45 69 7 108 -36 36 -52 36 -108 3 -25 -14 -46 -24 -47 -22 -1 1 -23 29
-49 61 -47 58 -56 77 -38 77 5 0 26 15 45 34 43 40 47 76 11 111 -32 33 -61
31 -118 -5 l-46 -29 -57 81 c-53 74 -56 81 -38 91 40 23 64 56 64 90 0 66 -66
90 -133 48 l-35 -22 -58 93 c-106 170 -192 347 -203 419 -17 107 5 198 70 280
52 66 28 139 -45 139 -28 0 -41 -8 -71 -42 -79 -92 -118 -217 -113 -361 l3
-80 -30 -9 c-103 -29 -342 -69 -472 -79 -180 -14 -326 -2 -459 36 -144 42
-225 95 -337 223 -170 192 -301 443 -336 647 -18 101 -19 104 -51 120 -32 17
-37 17 -65 6z m14 -333 c83 -264 336 -607 535 -727 83 -50 237 -99 367 -117
207 -30 552 0 811 69 l87 24 37 -71 c21 -39 71 -126 112 -194 41 -68 73 -124
71 -126 -2 -1 -62 -38 -132 -81 -133 -82 -157 -103 -157 -143 0 -30 42 -72 73
-72 13 0 86 39 163 86 l139 85 22 -28 c39 -49 96 -133 92 -137 -2 -2 -44 -30
-94 -61 -123 -78 -135 -91 -135 -136 0 -28 6 -42 22 -53 35 -25 70 -19 134 22
32 21 84 54 115 74 l56 36 47 -60 c26 -32 46 -64 44 -69 -2 -6 -46 -37 -98
-68 -106 -64 -130 -94 -110 -140 11 -27 46 -51 74 -51 7 0 64 31 126 69 l114
69 196 -198 c286 -289 448 -416 711 -556 169 -90 245 -146 288 -211 29 -43 61
-128 61 -159 0 -21 -102 -29 -355 -28 -263 1 -409 17 -680 75 -242 53 -569
170 -755 271 -92 50 -479 291 -943 586 -379 242 -394 249 -436 196 -28 -36
-26 -58 7 -93 37 -39 1074 -696 1270 -804 450 -249 1066 -396 1615 -385 97 1
176 0 175 -3 -2 -3 -28 -42 -58 -86 -63 -93 -47 -87 -264 -103 -373 -29 -921
64 -1334 226 -228 89 -375 177 -1352 799 -389 248 -1661 1064 -1669 1071 -2 2
31 50 74 106 43 57 79 104 80 106 1 1 252 -158 556 -354 305 -196 583 -375
617 -397 73 -46 117 -51 144 -16 23 27 23 71 1 97 -10 11 -112 80 -227 153
-114 73 -210 138 -213 145 -2 7 7 34 20 60 80 160 111 413 73 604 -42 216
-190 480 -270 480 -33 0 -76 -41 -76 -73 0 -13 17 -48 39 -78 87 -122 136
-237 161 -376 16 -88 8 -274 -15 -358 -18 -65 -64 -175 -74 -175 -12 1 -631
405 -632 413 0 10 712 937 720 937 4 0 17 -33 30 -72z"/>
</g>
</svg>
